<svg xmlns="http://www.w3.org/2000/svg" xmlns:xlink="http://www.w3.org/1999/xlink" xmlns:lucid="lucid" width="1481" height="814"><g transform="translate(0 -35)" lucid:page-tab-id="0_0"><path d="M0 0h1760v1360H0z" fill="#fff"/><path d="M140 487.67a5 5 0 0 1 5-5h349.5a5 5 0 0 1 5 5v286a5 5 0 0 1-5 5H145a5 5 0 0 1-5-5z" fill="#fff"/><path d="M140 522.67v-35a5 5 0 0 1 5-5h349.5a5 5 0 0 1 5 5v35" fill="#ccc"/><path d="M140 487.67a5 5 0 0 1 5-5h349.5a5 5 0 0 1 5 5v286a5 5 0 0 1-5 5H145a5 5 0 0 1-5-5zM140 522.67h359.5M325.33 522.67v256" stroke="#333" fill="none"/><use xlink:href="#a" transform="matrix(1,0,0,1,150,482.66666666666674) translate(0 23.6)"/><use xlink:href="#b" transform="matrix(1,0,0,1,145,525.1666666666667) translate(0 17.1)"/><use xlink:href="#c" transform="matrix(1,0,0,1,330.33333333333337,525.1666666666667) translate(0 17.1)"/><use xlink:href="#d" transform="matrix(1,0,0,1,145,557.1666666666667) translate(0 17.1)"/><use xlink:href="#e" transform="matrix(1,0,0,1,330.33333333333337,557.1666666666667) translate(0 17.1)"/><use xlink:href="#f" transform="matrix(1,0,0,1,145,589.1666666666667) translate(0 17.1)"/><use xlink:href="#e" transform="matrix(1,0,0,1,330.33333333333337,589.1666666666667) translate(0 17.1)"/><use xlink:href="#g" transform="matrix(1,0,0,1,145,621.1666666666667) translate(0 17.1)"/><use xlink:href="#h" transform="matrix(1,0,0,1,330.33333333333337,621.1666666666667) translate(0 17.1)"/><use xlink:href="#i" transform="matrix(1,0,0,1,145,653.1666666666667) translate(0 17.1)"/><use xlink:href="#e" transform="matrix(1,0,0,1,330.33333333333337,653.1666666666667) translate(0 17.1)"/><use xlink:href="#j" transform="matrix(1,0,0,1,145,685.1666666666667) translate(0 17.1)"/><use xlink:href="#k" transform="matrix(1,0,0,1,330.33333333333337,685.1666666666667) translate(0 17.1)"/><use xlink:href="#l" transform="matrix(1,0,0,1,145,717.1666666666667) translate(0 17.1)"/><use xlink:href="#m" transform="matrix(1,0,0,1,145,717.1666666666667) translate(100.80000000000001 17.1)"/><use xlink:href="#n" transform="matrix(1,0,0,1,330.33333333333337,717.1666666666667) translate(0 17.1)"/><use xlink:href="#o" transform="matrix(1,0,0,1,145,749.1666666666667) translate(0 17.1)"/><use xlink:href="#p" transform="matrix(1,0,0,1,330.33333333333337,749.1666666666667) translate(0 17.1)"/><path d="M1040 485a5 5 0 0 1 5-5h270a5 5 0 0 1 5 5v254a5 5 0 0 1-5 5h-270a5 5 0 0 1-5-5z" fill="#fff"/><path d="M1040 520v-35a5 5 0 0 1 5-5h270a5 5 0 0 1 5 5v35" fill="#ccc"/><path d="M1040 485a5 5 0 0 1 5-5h270a5 5 0 0 1 5 5v254a5 5 0 0 1-5 5h-270a5 5 0 0 1-5-5zM1040 520h280M1180 520v224" stroke="#333" fill="none"/><use xlink:href="#q" transform="matrix(1,0,0,1,1050,480) translate(0 23.6)"/><use xlink:href="#r" transform="matrix(1,0,0,1,1045,522.5) translate(0 17.1)"/><use xlink:href="#s" transform="matrix(1,0,0,1,1185,522.5) translate(0 17.1)"/><use xlink:href="#t" transform="matrix(1,0,0,1,1045,554.5) translate(0 17.1)"/><use xlink:href="#e" transform="matrix(1,0,0,1,1185,554.5) translate(0 17.1)"/><use xlink:href="#u" transform="matrix(1,0,0,1,1045,586.5) translate(0 17.1)"/><use xlink:href="#v" transform="matrix(1,0,0,1,1185,586.5) translate(0 17.1)"/><use xlink:href="#w" transform="matrix(1,0,0,1,1045,618.5) translate(0 17.1)"/><use xlink:href="#h" transform="matrix(1,0,0,1,1185,618.5) translate(0 17.1)"/><use xlink:href="#x" transform="matrix(1,0,0,1,1045,650.5) translate(0 17.1)"/><use xlink:href="#y" transform="matrix(1,0,0,1,1185,650.5) translate(0 17.1)"/><use xlink:href="#z" transform="matrix(1,0,0,1,1045,682.5) translate(0 17.1)"/><use xlink:href="#A" transform="matrix(1,0,0,1,1185,682.5) translate(0 17.1)"/><use xlink:href="#B" transform="matrix(1,0,0,1,1045,714.5) translate(0 17.1)"/><use xlink:href="#k" transform="matrix(1,0,0,1,1185,714.5) translate(0 17.1)"/><path d="M160 252.32a5 5 0 0 1 5-5h270a5 5 0 0 1 5 5v158a5 5 0 0 1-5 5H165a5 5 0 0 1-5-5z" fill="#fff"/><path d="M160 287.32v-35a5 5 0 0 1 5-5h270a5 5 0 0 1 5 5v35" fill="#ccc"/><path d="M160 252.32a5 5 0 0 1 5-5h270a5 5 0 0 1 5 5v158a5 5 0 0 1-5 5H165a5 5 0 0 1-5-5zM160 287.32h280M298.28 287.32v128" stroke="#333" fill="none"/><use xlink:href="#C" transform="matrix(1,0,0,1,170,247.3156051726091) translate(0 23.6)"/><use xlink:href="#D" transform="matrix(1,0,0,1,165,289.81560517260914) translate(0 17.1)"/><use xlink:href="#c" transform="matrix(1,0,0,1,303.27983457586146,289.81560517260914) translate(0 17.1)"/><use xlink:href="#E" transform="matrix(1,0,0,1,165,321.81560517260914) translate(0 17.1)"/><use xlink:href="#e" transform="matrix(1,0,0,1,303.27983457586146,321.81560517260914) translate(0 17.1)"/><use xlink:href="#F" transform="matrix(1,0,0,1,165,353.81560517260914) translate(0 17.1)"/><use xlink:href="#e" transform="matrix(1,0,0,1,303.27983457586146,353.81560517260914) translate(0 17.1)"/><use xlink:href="#G" transform="matrix(1,0,0,1,165,385.81560517260914) translate(0 17.1)"/><use xlink:href="#H" transform="matrix(1,0,0,1,303.27983457586146,385.81560517260914) translate(0 17.1)"/><path d="M353.15 127.97a8 8 0 0 1 8-8h836.75a8 8 0 0 1 8 8v25.15a8 8 0 0 1-8 8H361.15a8 8 0 0 1-8-8z" stroke="#000" stroke-opacity="0" stroke-width="2" fill="#fff" fill-opacity="0"/><use xlink:href="#I" transform="matrix(1,0,0,1,357.14655278534315,123.9645436783187) translate(308.79333333333335 25.782777777777778)"/><use xlink:href="#J" transform="matrix(1,0,0,1,357.14655278534315,123.9645436783187) translate(371.28962962962964 25.782777777777778)"/><use xlink:href="#K" transform="matrix(1,0,0,1,357.14655278534315,123.9645436783187) translate(490.52790123456793 25.782777777777778)"/><use xlink:href="#L" transform="matrix(1,0,0,1,357.14655278534315,123.9645436783187) translate(506.4797530864198 25.782777777777778)"/><path d="M460.8 159.78h634.27M460.83 159.78h-1.02" stroke="#a9afb8" stroke-width="2" fill="none"/><path d="M1096.07 160.75h-1.02v-1.95h1.02z" stroke="#a9afb8" stroke-width=".05" fill="#a9afb8"/><path d="M353.15 169.12a8 8 0 0 1 8-8h837.7a8 8 0 0 1 8 8v2.84a8 8 0 0 1-8 8h-837.7a8 8 0 0 1-8-8z" stroke="#000" stroke-opacity="0" stroke-width="2" fill="#fff" fill-opacity="0"/><use xlink:href="#M" transform="matrix(1,0,0,1,357.1465527853436,165.1197676352175) translate(360.3022325102881 14.917037037037037)"/><use xlink:href="#N" transform="matrix(1,0,0,1,357.1465527853436,165.1197676352175) translate(405.2138580246914 14.917037037037037)"/><use xlink:href="#O" transform="matrix(1,0,0,1,357.1465527853436,165.1197676352175) translate(445.87651234567903 14.917037037037037)"/><use xlink:href="#P" transform="matrix(1,0,0,1,357.1465527853436,165.1197676352175) translate(458.32599794238683 14.917037037037037)"/><path d="M139.5 303.22h-28a12 12 0 0 0-12 12v435.45a12 12 0 0 0 12 12h8" stroke="#333" fill="none"/><path d="M139.5 293.22v20M159.5 303.22h-20M119.5 752.67v20M139.5 762.67h-20" stroke="#333" fill="#fff"/><path d="M600 549a5 5 0 0 1 5-5h270a5 5 0 0 1 5 5v190a5 5 0 0 1-5 5H605a5 5 0 0 1-5-5z" fill="#fff"/><path d="M600 584v-35a5 5 0 0 1 5-5h270a5 5 0 0 1 5 5v35" fill="#ccc"/><path d="M600 549a5 5 0 0 1 5-5h270a5 5 0 0 1 5 5v190a5 5 0 0 1-5 5H605a5 5 0 0 1-5-5zM600 584h280M740 584v160" stroke="#333" fill="none"/><use xlink:href="#Q" transform="matrix(1,0,0,1,610,544) translate(0 23.6)"/><use xlink:href="#R" transform="matrix(1,0,0,1,610,544) translate(73 23.6)"/><use xlink:href="#S" transform="matrix(1,0,0,1,605,586.5) translate(0 17.1)"/><use xlink:href="#c" transform="matrix(1,0,0,1,745,586.5) translate(0 17.1)"/><use xlink:href="#b" transform="matrix(1,0,0,1,605,618.5) translate(0 17.1)"/><use xlink:href="#T" transform="matrix(1,0,0,1,745,618.5) translate(0 17.1)"/><use xlink:href="#U" transform="matrix(1,0,0,1,605,650.5) translate(0 17.1)"/><use xlink:href="#V" transform="matrix(1,0,0,1,745,650.5) translate(0 17.1)"/><use xlink:href="#W" transform="matrix(1,0,0,1,605,682.5) translate(0 17.1)"/><use xlink:href="#X" transform="matrix(1,0,0,1,745,682.5) translate(0 17.1)"/><use xlink:href="#Y" transform="matrix(1,0,0,1,605,714.5) translate(0 17.1)"/><use xlink:href="#y" transform="matrix(1,0,0,1,745,714.5) translate(0 17.1)"/><path d="M700 236.32a5 5 0 0 1 5-5h270a5 5 0 0 1 5 5v190a5 5 0 0 1-5 5H705a5 5 0 0 1-5-5z" fill="#fff"/><path d="M700 271.32v-35a5 5 0 0 1 5-5h270a5 5 0 0 1 5 5v35" fill="#ccc"/><path d="M700 236.32a5 5 0 0 1 5-5h270a5 5 0 0 1 5 5v190a5 5 0 0 1-5 5H705a5 5 0 0 1-5-5zM700 271.32h280M840 271.32v160" stroke="#333" fill="none"/><use xlink:href="#Q" transform="matrix(1,0,0,1,710,231.31560517260914) translate(0 23.6)"/><use xlink:href="#Z" transform="matrix(1,0,0,1,710,231.31560517260914) translate(73 23.6)"/><use xlink:href="#aa" transform="matrix(1,0,0,1,705,273.81560517260914) translate(0 17.1)"/><use xlink:href="#c" transform="matrix(1,0,0,1,845,273.81560517260914) translate(0 17.1)"/><use xlink:href="#S" transform="matrix(1,0,0,1,705,305.81560517260914) translate(0 17.1)"/><use xlink:href="#T" transform="matrix(1,0,0,1,845,305.81560517260914) translate(0 17.1)"/><use xlink:href="#r" transform="matrix(1,0,0,1,705,337.81560517260914) translate(0 17.1)"/><use xlink:href="#T" transform="matrix(1,0,0,1,845,337.81560517260914) translate(0 17.1)"/><use xlink:href="#ab" transform="matrix(1,0,0,1,705,369.81560517260914) translate(0 17.1)"/><use xlink:href="#ac" transform="matrix(1,0,0,1,845,369.81560517260914) translate(0 17.1)"/><use xlink:href="#ad" transform="matrix(1,0,0,1,705,401.81560517260914) translate(0 17.1)"/><use xlink:href="#y" transform="matrix(1,0,0,1,845,401.81560517260914) translate(0 17.1)"/><path d="M1340.5 536h8a12 12 0 0 0 12-12V359.1a12 12 0 0 0-12-12H999.9" stroke="#333" fill="none"/><path d="M1340.5 546v-20M1320.5 536h20" stroke="#333" fill="#fff"/><path d="M980.72 337.1l20 10-20 10" stroke="#333" fill="#fff" fill-opacity="0"/><path d="M980.72 347.1h20" stroke="#333" fill="#fff"/><path d="M900.5 599.84h8a12 12 0 0 0 12-12v-88.18a12 12 0 0 0-12-12h-237a12 12 0 0 1-12-12v-144.4a12 12 0 0 1 12-12h8.6" stroke="#333" fill="none"/><path d="M900.5 609.84v-20M880.5 599.84h20" stroke="#333" fill="#fff"/><path d="M699.28 329.27l-20-10 20-10" stroke="#333" fill="#fff" fill-opacity="0"/><path d="M699.28 319.27h-20" stroke="#333" fill="#fff"/><path d="M520 538.4h17.75a12 12 0 0 1 12 12v69.56a12 12 0 0 0 12 12h18.34" stroke="#333" fill="none"/><path d="M520 548.4v-20M500 538.4h20" stroke="#333" fill="#fff"/><path d="M599.28 641.96l-20-10 20-10" stroke="#333" fill="#fff" fill-opacity="0"/><path d="M599.28 631.96h-20" stroke="#333" fill="#fff"/><defs><path fill="#333" d="M62-99C39-31 123 0 170-40s38-139 58-208h34C234-144 253 4 115 4 49 4 18-43 31-112l26-136h34" id="ae"/><path fill="#333" d="M55-144c13 50 104 24 104 88C159 21 15 23 1-39l26-10c6 40 102 42 102-4-13-50-104-23-104-87 0-71 143-71 148-8l-29 4c-5-35-85-37-89 0" id="af"/><path fill="#333" d="M111-194c62-3 86 47 72 106H45c-7 38 6 69 45 68 27-1 43-14 53-32l24 11C152-15 129 4 87 4 38 3 12-23 12-71c0-70 32-119 99-123zm44 81c14-66-71-72-95-28-4 8-8 17-11 28h106" id="ag"/><path fill="#333" d="M66-151c12-25 30-51 66-40l-6 26C45-176 58-65 38 0H6l36-190h30" id="ah"/><g id="a"><use transform="matrix(0.05,0,0,0.05,0,0)" xlink:href="#ae"/><use transform="matrix(0.05,0,0,0.05,12.950000000000001,0)" xlink:href="#af"/><use transform="matrix(0.05,0,0,0.05,21.950000000000003,0)" xlink:href="#ag"/><use transform="matrix(0.05,0,0,0.05,31.950000000000003,0)" xlink:href="#ah"/></g><path fill="#333" d="M67 3c-93-2-31-127-26-193h32L48-50c-3 39 53 32 70 12 30-34 30-101 43-152h32L157 0h-30c1-10 6-24 4-33-14 20-29 37-64 36" id="ai"/><path fill="#333" d="M-28 44V31h207v13H-28" id="aj"/><path fill="#333" d="M50-231l6-30h32l-6 30H50zM6 0l37-190h31L37 0H6" id="ak"/><path fill="#333" d="M133-28C103 26-5 8 13-77c13-62 24-115 90-117 29-1 46 15 56 35l19-102h32L160 0h-30zM45-64c-2 27 10 43 35 43 54-1 69-50 69-103 0-29-15-46-42-46-53-1-58 58-62 106" id="al"/><g id="b"><use transform="matrix(0.05,0,0,0.05,0,0)" xlink:href="#ai"/><use transform="matrix(0.05,0,0,0.05,10,0)" xlink:href="#af"/><use transform="matrix(0.05,0,0,0.05,19,0)" xlink:href="#ag"/><use transform="matrix(0.05,0,0,0.05,29,0)" xlink:href="#ah"/><use transform="matrix(0.05,0,0,0.05,34.95,0)" xlink:href="#aj"/><use transform="matrix(0.05,0,0,0.05,44.95,0)" xlink:href="#ak"/><use transform="matrix(0.05,0,0,0.05,48.900000000000006,0)" xlink:href="#al"/></g><path fill="#333" d="M238-179c0 84-86 86-175 82L45 0H11l48-248c82 0 179-12 179 69zm-34 1c0-53-64-42-116-43l-19 98c63 0 135 9 135-55" id="am"/><path fill="#333" d="M180 0L97-118 63-96 45 0H11l48-248h34L69-126c44-43 94-81 141-122h43L121-137 219 0h-39" id="an"/><g id="c"><use transform="matrix(0.05,0,0,0.05,0,0)" xlink:href="#am"/><use transform="matrix(0.05,0,0,0.05,12,0)" xlink:href="#an"/></g><path fill="#333" d="M87-220l-18 92h140l-5 28H64L45 0H11l48-248h178l-5 28H87" id="ao"/><path fill="#333" d="M51-54c-9 22 5 41 31 30L79-1C43 14 10-4 19-52l22-115H19l5-23h22l19-43h21l-9 43h35l-4 23H73" id="ap"/><path fill="#333" d="M67-158c22-48 132-52 116 29L158 0h-32l25-140c3-38-53-32-70-12C52-117 51-52 38 0H6l36-190h30" id="aq"/><path fill="#333" d="M165-48c-4 18 1 34 23 27l-3 20c-29 8-62 0-52-35h-2C116-14 99 4 63 4 30 4 8-16 8-49c0-68 71-67 138-67 10-26 0-56-31-54-26 1-42 9-47 31l-32-5c8-67 160-71 144 15-5 28-9 54-15 81zM42-50c3 52 80 24 89-6 7-12 7-24 11-38-47 1-103-4-100 44" id="ar"/><path fill="#333" d="M248-111c6-24 9-61-24-58-72 9-57 108-77 169h-31l26-142c3-37-50-30-64-10C52-115 50-51 37 0H6l36-190h30c-1 10-6 24-4 32 13-43 101-52 105 5 13-22 29-41 61-41 90 0 28 129 23 194h-31" id="as"/><g id="d"><use transform="matrix(0.05,0,0,0.05,0,0)" xlink:href="#ao"/><use transform="matrix(0.05,0,0,0.05,10.950000000000001,0)" xlink:href="#ak"/><use transform="matrix(0.05,0,0,0.05,14.9,0)" xlink:href="#ah"/><use transform="matrix(0.05,0,0,0.05,20.85,0)" xlink:href="#af"/><use transform="matrix(0.05,0,0,0.05,29.85,0)" xlink:href="#ap"/><use transform="matrix(0.05,0,0,0.05,34.85,0)" xlink:href="#aq"/><use transform="matrix(0.05,0,0,0.05,44.85,0)" xlink:href="#ar"/><use transform="matrix(0.05,0,0,0.05,54.85,0)" xlink:href="#as"/><use transform="matrix(0.05,0,0,0.05,69.8,0)" xlink:href="#ag"/></g><path fill="#333" d="M119 0H84L31-248h34l41 218 126-218h36" id="at"/><path fill="#333" d="M187 0l-14-72H61L19 0h-37l149-248h38L221 0h-34zm-19-99l-22-123L76-99h92" id="au"/><path fill="#333" d="M249-183c0 48-29 72-75 77L221 0h-36l-43-103H65L45 0H11l48-248c83 2 190-17 190 65zm-34 3c0-55-74-39-127-41l-18 92c63-1 145 13 145-51" id="av"/><path fill="#333" d="M125-24c46 0 70-25 89-51l25 16C214-24 183 4 123 4 8 4-5-146 60-208c32-50 158-61 191-5 5 7 9 14 11 22l-32 10c-9-28-33-43-69-43-74 0-108 51-108 125 0 46 24 75 72 75" id="aw"/><path fill="#333" d="M179 0l23-115H67L45 0H11l48-248h34L72-143h135l21-105h32L212 0h-33" id="ax"/><g id="e"><use transform="matrix(0.05,0,0,0.05,0,0)" xlink:href="#at"/><use transform="matrix(0.05,0,0,0.05,11,0)" xlink:href="#au"/><use transform="matrix(0.05,0,0,0.05,23,0)" xlink:href="#av"/><use transform="matrix(0.05,0,0,0.05,35.95,0)" xlink:href="#aw"/><use transform="matrix(0.05,0,0,0.05,48.900000000000006,0)" xlink:href="#ax"/><use transform="matrix(0.05,0,0,0.05,61.85,0)" xlink:href="#au"/><use transform="matrix(0.05,0,0,0.05,73.85000000000001,0)" xlink:href="#av"/></g><path fill="#333" d="M11 0l48-248h34L50-27h125l-5 27H11" id="ay"/><g id="f"><use transform="matrix(0.05,0,0,0.05,0,0)" xlink:href="#ay"/><use transform="matrix(0.05,0,0,0.05,10,0)" xlink:href="#ar"/><use transform="matrix(0.05,0,0,0.05,20,0)" xlink:href="#af"/><use transform="matrix(0.05,0,0,0.05,29,0)" xlink:href="#ap"/><use transform="matrix(0.05,0,0,0.05,34,0)" xlink:href="#aq"/><use transform="matrix(0.05,0,0,0.05,44,0)" xlink:href="#ar"/><use transform="matrix(0.05,0,0,0.05,54,0)" xlink:href="#as"/><use transform="matrix(0.05,0,0,0.05,68.95,0)" xlink:href="#ag"/></g><path fill="#333" d="M68-162c25-46 127-43 121 31C183-60 169 1 98 4 69 5 53-11 43-31L36 0H5l52-261h31zm88 36c2-27-9-43-34-43-55 0-70 51-70 103 0 29 15 45 43 46 52 0 58-58 61-106" id="az"/><path fill="#333" d="M67-158c15-20 31-36 64-36 94 0 33 127 27 194h-32l25-140c3-38-53-32-70-12C52-117 51-51 37 0H6l51-261h31" id="aA"/><g id="g"><use transform="matrix(0.05,0,0,0.05,0,0)" xlink:href="#az"/><use transform="matrix(0.05,0,0,0.05,10,0)" xlink:href="#ak"/><use transform="matrix(0.05,0,0,0.05,13.949999999999998,0)" xlink:href="#ah"/><use transform="matrix(0.05,0,0,0.05,19.9,0)" xlink:href="#ap"/><use transform="matrix(0.05,0,0,0.05,24.9,0)" xlink:href="#aA"/><use transform="matrix(0.05,0,0,0.05,34.9,0)" xlink:href="#al"/><use transform="matrix(0.05,0,0,0.05,44.9,0)" xlink:href="#ar"/><use transform="matrix(0.05,0,0,0.05,54.900000000000006,0)" xlink:href="#ap"/><use transform="matrix(0.05,0,0,0.05,59.900000000000006,0)" xlink:href="#ag"/></g><path fill="#333" d="M248-139C247-14 144 9 11 0l48-248c105-6 190 8 189 109zm-34 0c1-70-52-87-126-82L50-27c98 7 163-21 164-112" id="aB"/><path fill="#333" d="M151-220L108 0H75l42-220H32l6-28h203l-5 28h-85" id="aC"/><path fill="#333" d="M11 0l48-248h184l-5 28H87l-15 79h140l-5 27H67L50-27h158l-5 27H11" id="aD"/><g id="h"><use transform="matrix(0.05,0,0,0.05,0,0)" xlink:href="#aB"/><use transform="matrix(0.05,0,0,0.05,12.950000000000001,0)" xlink:href="#au"/><use transform="matrix(0.05,0,0,0.05,23.6,0)" xlink:href="#aC"/><use transform="matrix(0.05,0,0,0.05,34.550000000000004,0)" xlink:href="#aD"/></g><path fill="#333" d="M44-68c0 29 11 47 38 47 30 0 42-19 51-41l28 9C148-21 126 4 82 4 31 4 10-29 12-85c3-77 74-140 146-93 12 8 15 23 18 40l-31 5c-1-22-13-36-36-36-52 0-65 49-65 101" id="aE"/><path fill="#333" d="M30-147c31-64 166-65 159 27C183-49 158 1 86 4 9 8 1-88 30-147zM88-20c53 0 68-48 68-100 0-31-11-51-44-50-52 1-68 46-68 97 0 32 13 53 44 53" id="aF"/><g id="i"><use transform="matrix(0.05,0,0,0.05,0,0)" xlink:href="#aB"/><use transform="matrix(0.05,0,0,0.05,12.950000000000001,0)" xlink:href="#ak"/><use transform="matrix(0.05,0,0,0.05,16.900000000000002,0)" xlink:href="#ah"/><use transform="matrix(0.05,0,0,0.05,22.85,0)" xlink:href="#ag"/><use transform="matrix(0.05,0,0,0.05,32.85,0)" xlink:href="#aE"/><use transform="matrix(0.05,0,0,0.05,41.85,0)" xlink:href="#ap"/><use transform="matrix(0.05,0,0,0.05,46.85,0)" xlink:href="#ak"/><use transform="matrix(0.05,0,0,0.05,50.800000000000004,0)" xlink:href="#aF"/><use transform="matrix(0.05,0,0,0.05,60.800000000000004,0)" xlink:href="#aq"/></g><path fill="#333" d="M6 0l50-261h32L37 0H6" id="aG"/><g id="j"><use transform="matrix(0.05,0,0,0.05,0,0)" xlink:href="#aD"/><use transform="matrix(0.05,0,0,0.05,12,0)" xlink:href="#as"/><use transform="matrix(0.05,0,0,0.05,26.950000000000003,0)" xlink:href="#ar"/><use transform="matrix(0.05,0,0,0.05,36.95,0)" xlink:href="#ak"/><use transform="matrix(0.05,0,0,0.05,40.900000000000006,0)" xlink:href="#aG"/></g><g id="k"><use transform="matrix(0.05,0,0,0.05,0,0)" xlink:href="#at"/><use transform="matrix(0.05,0,0,0.05,11,0)" xlink:href="#au"/><use transform="matrix(0.05,0,0,0.05,23,0)" xlink:href="#av"/><use transform="matrix(0.05,0,0,0.05,35.95,0)" xlink:href="#aw"/><use transform="matrix(0.05,0,0,0.05,48.900000000000006,0)" xlink:href="#ax"/><use transform="matrix(0.05,0,0,0.05,61.85,0)" xlink:href="#au"/><use transform="matrix(0.05,0,0,0.05,73.85000000000001,0)" xlink:href="#av"/></g><path fill="#333" d="M103-194c29 0 47 14 56 36 2-11 5-23 8-32h30L160-5C157 61 82 97 21 62 9 55 4 45 1 30l28-7c7 42 83 31 92-3 4-16 9-38 13-55-13 20-29 36-62 36-40 0-60-25-60-64 0-71 23-131 91-131zm4 24c-53 0-58 54-61 104-2 27 10 44 36 44 49 0 65-50 67-102 1-29-15-46-42-46" id="aH"/><g id="l"><use transform="matrix(0.05,0,0,0.05,0,0)" xlink:href="#av"/><use transform="matrix(0.05,0,0,0.05,12.950000000000001,0)" xlink:href="#ag"/><use transform="matrix(0.05,0,0,0.05,22.950000000000003,0)" xlink:href="#aH"/><use transform="matrix(0.05,0,0,0.05,32.95,0)" xlink:href="#ak"/><use transform="matrix(0.05,0,0,0.05,36.900000000000006,0)" xlink:href="#af"/><use transform="matrix(0.05,0,0,0.05,45.900000000000006,0)" xlink:href="#ap"/><use transform="matrix(0.05,0,0,0.05,50.900000000000006,0)" xlink:href="#ah"/><use transform="matrix(0.05,0,0,0.05,56.85,0)" xlink:href="#ar"/><use transform="matrix(0.05,0,0,0.05,66.85000000000001,0)" xlink:href="#ap"/><use transform="matrix(0.05,0,0,0.05,71.85000000000001,0)" xlink:href="#ak"/><use transform="matrix(0.05,0,0,0.05,75.80000000000001,0)" xlink:href="#aF"/><use transform="matrix(0.05,0,0,0.05,85.80000000000001,0)" xlink:href="#aq"/></g><g id="m"><use transform="matrix(0.05,0,0,0.05,0,0)" xlink:href="#aB"/><use transform="matrix(0.05,0,0,0.05,12.950000000000001,0)" xlink:href="#ar"/><use transform="matrix(0.05,0,0,0.05,22.950000000000003,0)" xlink:href="#ap"/><use transform="matrix(0.05,0,0,0.05,27.950000000000003,0)" xlink:href="#ag"/></g><path fill="#333" d="M14 0l48-248h34L48 0H14" id="aI"/><path fill="#333" d="M222 0l43-216c-8 16-17 34-26 49L143 0h-22L81-216 41 0H11l48-248h42l38 208 116-208h45L252 0h-30" id="aJ"/><path fill="#333" d="M194-120c59 52 2 134-86 124-53-6-90-18-98-63l31-7c8 30 29 43 70 43 46 0 84-17 71-62-32-43-135-20-137-98-3-89 178-90 191-16l-30 9c-8-48-127-53-127 5 0 53 81 35 115 65" id="aK"/><g id="n"><use transform="matrix(0.05,0,0,0.05,0,0)" xlink:href="#aC"/><use transform="matrix(0.05,0,0,0.05,10.950000000000001,0)" xlink:href="#aI"/><use transform="matrix(0.05,0,0,0.05,15.950000000000001,0)" xlink:href="#aJ"/><use transform="matrix(0.05,0,0,0.05,30.900000000000002,0)" xlink:href="#aD"/><use transform="matrix(0.05,0,0,0.05,42.900000000000006,0)" xlink:href="#aK"/><use transform="matrix(0.05,0,0,0.05,54.900000000000006,0)" xlink:href="#aC"/><use transform="matrix(0.05,0,0,0.05,64.5,0)" xlink:href="#au"/><use transform="matrix(0.05,0,0,0.05,76.5,0)" xlink:href="#aJ"/><use transform="matrix(0.05,0,0,0.05,91.45,0)" xlink:href="#am"/></g><g id="o"><use transform="matrix(0.05,0,0,0.05,0,0)" xlink:href="#aE"/><use transform="matrix(0.05,0,0,0.05,9,0)" xlink:href="#ah"/><use transform="matrix(0.05,0,0,0.05,14.949999999999998,0)" xlink:href="#ag"/><use transform="matrix(0.05,0,0,0.05,24.95,0)" xlink:href="#al"/><use transform="matrix(0.05,0,0,0.05,34.95,0)" xlink:href="#ag"/><use transform="matrix(0.05,0,0,0.05,44.95,0)" xlink:href="#aq"/><use transform="matrix(0.05,0,0,0.05,54.95,0)" xlink:href="#ap"/><use transform="matrix(0.05,0,0,0.05,59.95,0)" xlink:href="#ak"/><use transform="matrix(0.05,0,0,0.05,63.900000000000006,0)" xlink:href="#ar"/><use transform="matrix(0.05,0,0,0.05,73.9,0)" xlink:href="#aG"/><use transform="matrix(0.05,0,0,0.05,77.85000000000001,0)" xlink:href="#aj"/><use transform="matrix(0.05,0,0,0.05,87.85000000000001,0)" xlink:href="#ak"/><use transform="matrix(0.05,0,0,0.05,91.80000000000001,0)" xlink:href="#al"/></g><g id="p"><use transform="matrix(0.05,0,0,0.05,0,0)" xlink:href="#ao"/><use transform="matrix(0.05,0,0,0.05,10.950000000000001,0)" xlink:href="#an"/></g><g id="q"><use transform="matrix(0.05,0,0,0.05,0,0)" xlink:href="#am"/><use transform="matrix(0.05,0,0,0.05,12,0)" xlink:href="#ah"/><use transform="matrix(0.05,0,0,0.05,17.95,0)" xlink:href="#aF"/><use transform="matrix(0.05,0,0,0.05,27.950000000000003,0)" xlink:href="#al"/><use transform="matrix(0.05,0,0,0.05,37.95,0)" xlink:href="#ai"/><use transform="matrix(0.05,0,0,0.05,47.95,0)" xlink:href="#aE"/><use transform="matrix(0.05,0,0,0.05,56.95,0)" xlink:href="#ap"/></g><path fill="#333" d="M67-162c32-53 139-36 121 50C175-51 163 2 97 4 68 4 52-11 42-31 38 6 28 39 22 75H-9l50-265h29c-1 10 0 20-3 28zm89 36c0-26-10-43-35-43-54 0-67 50-69 103-1 29 14 45 42 46 53 0 62-58 62-106" id="aL"/><g id="r"><use transform="matrix(0.05,0,0,0.05,0,0)" xlink:href="#aL"/><use transform="matrix(0.05,0,0,0.05,10,0)" xlink:href="#ah"/><use transform="matrix(0.05,0,0,0.05,15.949999999999998,0)" xlink:href="#aF"/><use transform="matrix(0.05,0,0,0.05,25.950000000000003,0)" xlink:href="#al"/><use transform="matrix(0.05,0,0,0.05,35.95,0)" xlink:href="#ai"/><use transform="matrix(0.05,0,0,0.05,45.95,0)" xlink:href="#aE"/><use transform="matrix(0.05,0,0,0.05,54.95,0)" xlink:href="#ap"/><use transform="matrix(0.05,0,0,0.05,59.95,0)" xlink:href="#aj"/><use transform="matrix(0.05,0,0,0.05,69.95,0)" xlink:href="#ak"/><use transform="matrix(0.05,0,0,0.05,73.9,0)" xlink:href="#al"/></g><g id="s"><use transform="matrix(0.05,0,0,0.05,0,0)" xlink:href="#ai"/><use transform="matrix(0.05,0,0,0.05,10,0)" xlink:href="#ai"/><use transform="matrix(0.05,0,0,0.05,20,0)" xlink:href="#ak"/><use transform="matrix(0.05,0,0,0.05,23.95,0)" xlink:href="#al"/></g><path fill="#333" d="M173 0L80-213 41 0H11l48-248h37l94 214 40-214h30L212 0h-39" id="aM"/><g id="t"><use transform="matrix(0.05,0,0,0.05,0,0)" xlink:href="#aL"/><use transform="matrix(0.05,0,0,0.05,10,0)" xlink:href="#ah"/><use transform="matrix(0.05,0,0,0.05,15.949999999999998,0)" xlink:href="#aF"/><use transform="matrix(0.05,0,0,0.05,25.950000000000003,0)" xlink:href="#al"/><use transform="matrix(0.05,0,0,0.05,35.95,0)" xlink:href="#ai"/><use transform="matrix(0.05,0,0,0.05,45.95,0)" xlink:href="#aE"/><use transform="matrix(0.05,0,0,0.05,54.95,0)" xlink:href="#ap"/><use transform="matrix(0.05,0,0,0.05,59.95,0)" xlink:href="#aM"/><use transform="matrix(0.05,0,0,0.05,72.9,0)" xlink:href="#ar"/><use transform="matrix(0.05,0,0,0.05,82.9,0)" xlink:href="#as"/><use transform="matrix(0.05,0,0,0.05,97.85000000000001,0)" xlink:href="#ag"/></g><g id="u"><use transform="matrix(0.05,0,0,0.05,0,0)" xlink:href="#al"/><use transform="matrix(0.05,0,0,0.05,10,0)" xlink:href="#ag"/><use transform="matrix(0.05,0,0,0.05,20,0)" xlink:href="#af"/><use transform="matrix(0.05,0,0,0.05,29,0)" xlink:href="#aE"/><use transform="matrix(0.05,0,0,0.05,38,0)" xlink:href="#ah"/><use transform="matrix(0.05,0,0,0.05,43.95,0)" xlink:href="#ak"/><use transform="matrix(0.05,0,0,0.05,47.900000000000006,0)" xlink:href="#aL"/><use transform="matrix(0.05,0,0,0.05,57.900000000000006,0)" xlink:href="#ap"/><use transform="matrix(0.05,0,0,0.05,62.900000000000006,0)" xlink:href="#ak"/><use transform="matrix(0.05,0,0,0.05,66.85000000000001,0)" xlink:href="#aF"/><use transform="matrix(0.05,0,0,0.05,76.85000000000001,0)" xlink:href="#aq"/></g><path fill="#333" d="M124 0L87-78 21 0h-35l86-98-46-92h33l34 74 61-74h37l-83 92 50 98h-34" id="aN"/><g id="v"><use transform="matrix(0.05,0,0,0.05,0,0)" xlink:href="#ap"/><use transform="matrix(0.05,0,0,0.05,5,0)" xlink:href="#ag"/><use transform="matrix(0.05,0,0,0.05,15,0)" xlink:href="#aN"/><use transform="matrix(0.05,0,0,0.05,24,0)" xlink:href="#ap"/></g><path fill="#333" d="M198-190L69 30C53 58 25 83-20 72c4-11-1-27 19-22 33-1 43-29 59-52L20-190h32L79-34l84-156h35" id="aO"/><g id="w"><use transform="matrix(0.05,0,0,0.05,0,0)" xlink:href="#ag"/><use transform="matrix(0.05,0,0,0.05,10,0)" xlink:href="#aq"/><use transform="matrix(0.05,0,0,0.05,20,0)" xlink:href="#ap"/><use transform="matrix(0.05,0,0,0.05,25,0)" xlink:href="#ah"/><use transform="matrix(0.05,0,0,0.05,30.950000000000003,0)" xlink:href="#aO"/><use transform="matrix(0.05,0,0,0.05,39.95,0)" xlink:href="#aj"/><use transform="matrix(0.05,0,0,0.05,49.95,0)" xlink:href="#al"/><use transform="matrix(0.05,0,0,0.05,59.95,0)" xlink:href="#ar"/><use transform="matrix(0.05,0,0,0.05,69.95,0)" xlink:href="#ap"/><use transform="matrix(0.05,0,0,0.05,74.95,0)" xlink:href="#ag"/></g><g id="x"><use transform="matrix(0.05,0,0,0.05,0,0)" xlink:href="#aL"/><use transform="matrix(0.05,0,0,0.05,10,0)" xlink:href="#ah"/><use transform="matrix(0.05,0,0,0.05,15.949999999999998,0)" xlink:href="#ak"/><use transform="matrix(0.05,0,0,0.05,19.9,0)" xlink:href="#aE"/><use transform="matrix(0.05,0,0,0.05,28.899999999999995,0)" xlink:href="#ag"/></g><g id="y"><use transform="matrix(0.05,0,0,0.05,0,0)" xlink:href="#al"/><use transform="matrix(0.05,0,0,0.05,10,0)" xlink:href="#ag"/><use transform="matrix(0.05,0,0,0.05,20,0)" xlink:href="#aE"/><use transform="matrix(0.05,0,0,0.05,29,0)" xlink:href="#ak"/><use transform="matrix(0.05,0,0,0.05,32.95,0)" xlink:href="#as"/><use transform="matrix(0.05,0,0,0.05,47.900000000000006,0)" xlink:href="#ar"/><use transform="matrix(0.05,0,0,0.05,57.900000000000006,0)" xlink:href="#aG"/></g><path fill="#333" d="M127 0L80-88 50-66 37 0H6l51-261h31L57-100l99-90h39l-93 82L161 0h-34" id="aP"/><g id="z"><use transform="matrix(0.05,0,0,0.05,0,0)" xlink:href="#af"/><use transform="matrix(0.05,0,0,0.05,9,0)" xlink:href="#ap"/><use transform="matrix(0.05,0,0,0.05,14,0)" xlink:href="#aF"/><use transform="matrix(0.05,0,0,0.05,24,0)" xlink:href="#aE"/><use transform="matrix(0.05,0,0,0.05,33,0)" xlink:href="#aP"/></g><g id="A"><use transform="matrix(0.05,0,0,0.05,0,0)" xlink:href="#ak"/><use transform="matrix(0.05,0,0,0.05,3.95,0)" xlink:href="#aq"/><use transform="matrix(0.05,0,0,0.05,13.949999999999998,0)" xlink:href="#ap"/><use transform="matrix(0.05,0,0,0.05,18.95,0)" xlink:href="#ag"/><use transform="matrix(0.05,0,0,0.05,28.950000000000003,0)" xlink:href="#aH"/><use transform="matrix(0.05,0,0,0.05,38.95,0)" xlink:href="#ag"/><use transform="matrix(0.05,0,0,0.05,48.95,0)" xlink:href="#ah"/></g><g id="B"><use transform="matrix(0.05,0,0,0.05,0,0)" xlink:href="#ak"/><use transform="matrix(0.05,0,0,0.05,3.95,0)" xlink:href="#as"/><use transform="matrix(0.05,0,0,0.05,18.900000000000002,0)" xlink:href="#ar"/><use transform="matrix(0.05,0,0,0.05,28.900000000000002,0)" xlink:href="#aH"/><use transform="matrix(0.05,0,0,0.05,38.900000000000006,0)" xlink:href="#ag"/><use transform="matrix(0.05,0,0,0.05,48.900000000000006,0)" xlink:href="#ae"/><use transform="matrix(0.05,0,0,0.05,61.85,0)" xlink:href="#ah"/><use transform="matrix(0.05,0,0,0.05,67.80000000000001,0)" xlink:href="#aG"/></g><g id="C"><use transform="matrix(0.05,0,0,0.05,0,0)" xlink:href="#aw"/><use transform="matrix(0.05,0,0,0.05,12.950000000000001,0)" xlink:href="#ah"/><use transform="matrix(0.05,0,0,0.05,18.900000000000002,0)" xlink:href="#ag"/><use transform="matrix(0.05,0,0,0.05,28.900000000000002,0)" xlink:href="#al"/><use transform="matrix(0.05,0,0,0.05,38.900000000000006,0)" xlink:href="#ag"/><use transform="matrix(0.05,0,0,0.05,48.900000000000006,0)" xlink:href="#aq"/><use transform="matrix(0.05,0,0,0.05,58.900000000000006,0)" xlink:href="#ap"/><use transform="matrix(0.05,0,0,0.05,63.900000000000006,0)" xlink:href="#ak"/><use transform="matrix(0.05,0,0,0.05,67.85000000000001,0)" xlink:href="#ar"/><use transform="matrix(0.05,0,0,0.05,77.85000000000001,0)" xlink:href="#aG"/><use transform="matrix(0.05,0,0,0.05,81.80000000000001,0)" xlink:href="#af"/></g><g id="D"><use transform="matrix(0.05,0,0,0.05,0,0)" xlink:href="#aE"/><use transform="matrix(0.05,0,0,0.05,9,0)" xlink:href="#ah"/><use transform="matrix(0.05,0,0,0.05,14.949999999999998,0)" xlink:href="#ag"/><use transform="matrix(0.05,0,0,0.05,24.95,0)" xlink:href="#al"/><use transform="matrix(0.05,0,0,0.05,34.95,0)" xlink:href="#ag"/><use transform="matrix(0.05,0,0,0.05,44.95,0)" xlink:href="#aq"/><use transform="matrix(0.05,0,0,0.05,54.95,0)" xlink:href="#ap"/><use transform="matrix(0.05,0,0,0.05,59.95,0)" xlink:href="#ak"/><use transform="matrix(0.05,0,0,0.05,63.900000000000006,0)" xlink:href="#ar"/><use transform="matrix(0.05,0,0,0.05,73.9,0)" xlink:href="#aG"/><use transform="matrix(0.05,0,0,0.05,77.85000000000001,0)" xlink:href="#aj"/><use transform="matrix(0.05,0,0,0.05,87.85000000000001,0)" xlink:href="#ak"/><use transform="matrix(0.05,0,0,0.05,91.80000000000001,0)" xlink:href="#al"/></g><g id="E"><use transform="matrix(0.05,0,0,0.05,0,0)" xlink:href="#ai"/><use transform="matrix(0.05,0,0,0.05,10,0)" xlink:href="#af"/><use transform="matrix(0.05,0,0,0.05,19,0)" xlink:href="#ag"/><use transform="matrix(0.05,0,0,0.05,29,0)" xlink:href="#ah"/><use transform="matrix(0.05,0,0,0.05,34.95,0)" xlink:href="#aq"/><use transform="matrix(0.05,0,0,0.05,44.95,0)" xlink:href="#ar"/><use transform="matrix(0.05,0,0,0.05,54.95,0)" xlink:href="#as"/><use transform="matrix(0.05,0,0,0.05,69.9,0)" xlink:href="#ag"/></g><path fill="#333" d="M188 0h-37l-8-164L71 0H34L18-190h31l8 164 75-164h34l8 164 74-164h31" id="aQ"/><g id="F"><use transform="matrix(0.05,0,0,0.05,0,0)" xlink:href="#aL"/><use transform="matrix(0.05,0,0,0.05,10,0)" xlink:href="#ar"/><use transform="matrix(0.05,0,0,0.05,20,0)" xlink:href="#af"/><use transform="matrix(0.05,0,0,0.05,29,0)" xlink:href="#af"/><use transform="matrix(0.05,0,0,0.05,38,0)" xlink:href="#aQ"/><use transform="matrix(0.05,0,0,0.05,50.95,0)" xlink:href="#aF"/><use transform="matrix(0.05,0,0,0.05,60.95,0)" xlink:href="#ah"/><use transform="matrix(0.05,0,0,0.05,66.9,0)" xlink:href="#al"/></g><path d="M233-177c-1 41-23 64-60 70L243 0h-38l-65-103H63V0H30v-248c88 3 205-21 203 71zM63-129c60-2 137 13 137-47 0-61-80-42-137-45v92" id="aR"/><path d="M100-194c62-1 85 37 85 99 1 63-27 99-86 99S16-35 15-95c0-66 28-99 85-99zM99-20c44 1 53-31 53-75 0-43-8-75-51-75s-53 32-53 75 10 74 51 75" id="aS"/><path d="M24 0v-261h32V0H24" id="aT"/><g id="G"><use transform="matrix(0.05,0,0,0.05,0,0)" xlink:href="#aR"/><use transform="matrix(0.05,0,0,0.05,12.950000000000001,0)" xlink:href="#aS"/><use transform="matrix(0.05,0,0,0.05,22.950000000000003,0)" xlink:href="#aT"/></g><g id="H"><use transform="matrix(0.05,0,0,0.05,0,0)" xlink:href="#aD"/><use transform="matrix(0.05,0,0,0.05,12,0)" xlink:href="#aq"/><use transform="matrix(0.05,0,0,0.05,22,0)" xlink:href="#ai"/><use transform="matrix(0.05,0,0,0.05,32,0)" xlink:href="#as"/></g><path fill="#a9afb8" d="M24-248c120-7 223 5 221 122C244-46 201 0 124 0H24v-248zM76-40c74 7 117-18 117-86 0-67-45-88-117-82v168" id="aU"/><path fill="#a9afb8" d="M24 0v-248h195v40H76v63h132v40H76v65h150V0H24" id="aV"/><path fill="#a9afb8" d="M240-174c0 40-23 61-54 70L253 0h-59l-57-94H76V0H24v-248c93 4 217-23 216 74zM76-134c48-2 112 12 112-38 0-48-66-32-112-35v73" id="aW"/><g id="I"><use transform="matrix(0.0728395061728395,0,0,0.0728395061728395,0,0)" xlink:href="#aU"/><use transform="matrix(0.0728395061728395,0,0,0.0728395061728395,18.86543209876543,0)" xlink:href="#aV"/><use transform="matrix(0.0728395061728395,0,0,0.0728395061728395,36.34691358024691,0)" xlink:href="#aW"/></g><path fill="#a9afb8" d="M24-248c93 1 206-16 204 79-1 75-69 88-152 82V0H24v-248zm52 121c47 0 100 7 100-41 0-47-54-39-100-39v80" id="aX"/><path fill="#a9afb8" d="M135-150c-39-12-60 13-60 57V0H25l-1-190h47c2 13-1 29 3 40 6-28 27-53 61-41v41" id="aY"/><path fill="#a9afb8" d="M110-194c64 0 96 36 96 99 0 64-35 99-97 99-61 0-95-36-95-99 0-62 34-99 96-99zm-1 164c35 0 45-28 45-65 0-40-10-65-43-65-34 0-45 26-45 65 0 36 10 65 43 65" id="aZ"/><path fill="#a9afb8" d="M123 10C108 53 80 86 19 72V37c35 8 53-11 59-39L3-190h52l48 148c12-52 28-100 44-148h51" id="ba"/><path fill="#a9afb8" d="M185-48c-13 30-37 53-82 52C43 2 14-33 14-96s30-98 90-98c62 0 83 45 84 108H66c0 31 8 55 39 56 18 0 30-7 34-22zm-45-69c5-46-57-63-70-21-2 6-4 13-4 21h74" id="bb"/><path fill="#a9afb8" d="M190-63c-7 42-38 67-86 67-59 0-84-38-90-98-12-110 154-137 174-36l-49 2c-2-19-15-32-35-32-30 0-35 28-38 64-6 74 65 87 74 30" id="bc"/><path fill="#a9afb8" d="M115-3C79 11 28 4 28-45v-112H4v-33h27l15-45h31v45h36v33H77v99c-1 23 16 31 38 25v30" id="bd"/><g id="J"><use transform="matrix(0.0728395061728395,0,0,0.0728395061728395,0,0)" xlink:href="#aX"/><use transform="matrix(0.0728395061728395,0,0,0.0728395061728395,17.48148148148148,0)" xlink:href="#aY"/><use transform="matrix(0.0728395061728395,0,0,0.0728395061728395,27.679012345679013,0)" xlink:href="#aZ"/><use transform="matrix(0.0728395061728395,0,0,0.0728395061728395,43.63086419753086,0)" xlink:href="#ba"/><use transform="matrix(0.0728395061728395,0,0,0.0728395061728395,58.19876543209875,0)" xlink:href="#bb"/><use transform="matrix(0.0728395061728395,0,0,0.0728395061728395,72.76666666666667,0)" xlink:href="#bc"/><use transform="matrix(0.0728395061728395,0,0,0.0728395061728395,87.33456790123456,0)" xlink:href="#bd"/><use transform="matrix(0.0728395061728395,0,0,0.0728395061728395,96.00246913580247,0)" xlink:href="#aZ"/></g><path fill="#a9afb8" d="M14-72v-43h91v43H14" id="be"/><use transform="matrix(0.0728395061728395,0,0,0.0728395061728395,0,0)" xlink:href="#be" id="K"/><path fill="#a9afb8" d="M230 0l2-204L168 0h-37L68-204 70 0H24v-248h70l56 185 57-185h69V0h-46" id="bf"/><path fill="#a9afb8" d="M165-50V0h-47v-50H5v-38l105-160h55v161h33v37h-33zm-47-37l2-116L46-87h72" id="bg"/><g id="L"><use transform="matrix(0.0728395061728395,0,0,0.0728395061728395,0,0)" xlink:href="#bf"/><use transform="matrix(0.0728395061728395,0,0,0.0728395061728395,21.77901234567901,0)" xlink:href="#bg"/></g><path fill="#a9afb8" d="M30-248c118-7 216 8 213 122C240-48 200 0 122 0H30v-248zM63-27c89 8 146-16 146-99s-60-101-146-95v194" id="bh"/><path fill="#a9afb8" d="M100-194c63 0 86 42 84 106H49c0 40 14 67 53 68 26 1 43-12 49-29l28 8c-11 28-37 45-77 45C44 4 14-33 15-96c1-61 26-98 85-98zm52 81c6-60-76-77-97-28-3 7-6 17-6 28h103" id="bi"/><path fill="#a9afb8" d="M114-163C36-179 61-72 57 0H25l-1-190h30c1 12-1 29 2 39 6-27 23-49 58-41v29" id="bj"/><path fill="#a9afb8" d="M24-231v-30h32v30H24zM24 0v-190h32V0H24" id="bk"/><path fill="#a9afb8" d="M59-47c-2 24 18 29 38 22v24C64 9 27 4 27-40v-127H5v-23h24l9-43h21v43h35v23H59v120" id="bl"/><path fill="#a9afb8" d="M100-194c62-1 85 37 85 99 1 63-27 99-86 99S16-35 15-95c0-66 28-99 85-99zM99-20c44 1 53-31 53-75 0-43-8-75-51-75s-53 32-53 75 10 74 51 75" id="bm"/><g id="M"><use transform="matrix(0.04248971193415638,0,0,0.04248971193415638,0,0)" xlink:href="#bh"/><use transform="matrix(0.04248971193415638,0,0,0.04248971193415638,11.004835390946502,0)" xlink:href="#bi"/><use transform="matrix(0.04248971193415638,0,0,0.04248971193415638,19.502777777777776,0)" xlink:href="#bj"/><use transform="matrix(0.04248971193415638,0,0,0.04248971193415638,24.559053497942386,0)" xlink:href="#bk"/><use transform="matrix(0.04248971193415638,0,0,0.04248971193415638,27.91574074074074,0)" xlink:href="#bl"/><use transform="matrix(0.04248971193415638,0,0,0.04248971193415638,32.16471193415638,0)" xlink:href="#bm"/></g><path fill="#a9afb8" d="M212-179c-10-28-35-45-73-45-59 0-87 40-87 99 0 60 29 101 89 101 43 0 62-24 78-52l27 14C228-24 195 4 139 4 59 4 22-46 18-125c-6-104 99-153 187-111 19 9 31 26 39 46" id="bn"/><g id="N"><use transform="matrix(0.04248971193415638,0,0,0.04248971193415638,0,0)" xlink:href="#bn"/><use transform="matrix(0.04248971193415638,0,0,0.04248971193415638,11.004835390946502,0)" xlink:href="#bk"/><use transform="matrix(0.04248971193415638,0,0,0.04248971193415638,14.361522633744855,0)" xlink:href="#bj"/><use transform="matrix(0.04248971193415638,0,0,0.04248971193415638,19.417798353909465,0)" xlink:href="#bm"/></g><path fill="#a9afb8" d="M32 76v-337h29V76H32" id="bo"/><use transform="matrix(0.04248971193415638,0,0,0.04248971193415638,0,0)" xlink:href="#bo" id="O"/><path fill="#a9afb8" d="M101-251c82-7 93 87 43 132L82-64C71-53 59-42 53-27h129V0H18c2-99 128-94 128-182 0-28-16-43-45-43s-46 15-49 41l-32-3c6-41 34-60 81-64" id="bp"/><path fill="#a9afb8" d="M101-251c68 0 85 55 85 127S166 4 100 4C33 4 14-52 14-124c0-73 17-127 87-127zm-1 229c47 0 54-49 54-102s-4-102-53-102c-51 0-55 48-55 102 0 53 5 102 54 102" id="bq"/><path fill="#a9afb8" d="M155-56V0h-30v-56H8v-25l114-167h33v167h35v25h-35zm-30-156c-27 46-58 90-88 131h88v-131" id="br"/><g id="P"><use transform="matrix(0.04248971193415638,0,0,0.04248971193415638,0,0)" xlink:href="#bp"/><use transform="matrix(0.04248971193415638,0,0,0.04248971193415638,8.497942386831275,0)" xlink:href="#bq"/><use transform="matrix(0.04248971193415638,0,0,0.04248971193415638,16.99588477366255,0)" xlink:href="#bp"/><use transform="matrix(0.04248971193415638,0,0,0.04248971193415638,25.493827160493822,0)" xlink:href="#br"/></g><g id="Q"><use transform="matrix(0.05,0,0,0.05,0,0)" xlink:href="#aL"/><use transform="matrix(0.05,0,0,0.05,10,0)" xlink:href="#ai"/><use transform="matrix(0.05,0,0,0.05,20,0)" xlink:href="#aE"/><use transform="matrix(0.05,0,0,0.05,29,0)" xlink:href="#aA"/><use transform="matrix(0.05,0,0,0.05,39,0)" xlink:href="#ar"/><use transform="matrix(0.05,0,0,0.05,49,0)" xlink:href="#af"/><use transform="matrix(0.05,0,0,0.05,58,0)" xlink:href="#ag"/></g><path fill="#333" d="M20-101c0-91 52-143 145-150 126-9 127 168 53 223-23 17-55 32-93 32C57 4 20-33 20-101zm216-33c5-57-18-91-73-90-77 1-110 51-110 125 0 49 23 75 73 75 72-1 104-45 110-110" id="bs"/><g id="R"><use transform="matrix(0.05,0,0,0.05,0,0)" xlink:href="#bs"/><use transform="matrix(0.05,0,0,0.05,14,0)" xlink:href="#ah"/><use transform="matrix(0.05,0,0,0.05,19.95,0)" xlink:href="#al"/><use transform="matrix(0.05,0,0,0.05,29.950000000000003,0)" xlink:href="#ag"/><use transform="matrix(0.05,0,0,0.05,39.95,0)" xlink:href="#ah"/></g><g id="S"><use transform="matrix(0.05,0,0,0.05,0,0)" xlink:href="#aF"/><use transform="matrix(0.05,0,0,0.05,10,0)" xlink:href="#ah"/><use transform="matrix(0.05,0,0,0.05,15.949999999999998,0)" xlink:href="#al"/><use transform="matrix(0.05,0,0,0.05,25.950000000000003,0)" xlink:href="#ag"/><use transform="matrix(0.05,0,0,0.05,35.95,0)" xlink:href="#ah"/><use transform="matrix(0.05,0,0,0.05,41.900000000000006,0)" xlink:href="#aj"/><use transform="matrix(0.05,0,0,0.05,51.900000000000006,0)" xlink:href="#ak"/><use transform="matrix(0.05,0,0,0.05,55.85,0)" xlink:href="#al"/></g><g id="T"><use transform="matrix(0.05,0,0,0.05,0,0)" xlink:href="#ao"/><use transform="matrix(0.05,0,0,0.05,10.950000000000001,0)" xlink:href="#an"/></g><g id="U"><use transform="matrix(0.05,0,0,0.05,0,0)" xlink:href="#al"/><use transform="matrix(0.05,0,0,0.05,10,0)" xlink:href="#ar"/><use transform="matrix(0.05,0,0,0.05,20,0)" xlink:href="#ap"/><use transform="matrix(0.05,0,0,0.05,25,0)" xlink:href="#ag"/><use transform="matrix(0.05,0,0,0.05,35,0)" xlink:href="#aj"/><use transform="matrix(0.05,0,0,0.05,45,0)" xlink:href="#aF"/><use transform="matrix(0.05,0,0,0.05,55,0)" xlink:href="#ah"/><use transform="matrix(0.05,0,0,0.05,60.95,0)" xlink:href="#al"/><use transform="matrix(0.05,0,0,0.05,70.95,0)" xlink:href="#ag"/><use transform="matrix(0.05,0,0,0.05,80.95,0)" xlink:href="#ah"/></g><g id="V"><use transform="matrix(0.05,0,0,0.05,0,0)" xlink:href="#ap"/><use transform="matrix(0.05,0,0,0.05,5,0)" xlink:href="#ak"/><use transform="matrix(0.05,0,0,0.05,8.95,0)" xlink:href="#as"/><use transform="matrix(0.05,0,0,0.05,23.9,0)" xlink:href="#ag"/><use transform="matrix(0.05,0,0,0.05,33.9,0)" xlink:href="#af"/><use transform="matrix(0.05,0,0,0.05,42.9,0)" xlink:href="#ap"/><use transform="matrix(0.05,0,0,0.05,47.9,0)" xlink:href="#ar"/><use transform="matrix(0.05,0,0,0.05,57.900000000000006,0)" xlink:href="#as"/></g><g id="W"><use transform="matrix(0.05,0,0,0.05,0,0)" xlink:href="#af"/><use transform="matrix(0.05,0,0,0.05,9,0)" xlink:href="#ap"/><use transform="matrix(0.05,0,0,0.05,14,0)" xlink:href="#ar"/><use transform="matrix(0.05,0,0,0.05,24,0)" xlink:href="#ap"/><use transform="matrix(0.05,0,0,0.05,29,0)" xlink:href="#ai"/><use transform="matrix(0.05,0,0,0.05,39,0)" xlink:href="#af"/><use transform="matrix(0.05,0,0,0.05,48,0)" xlink:href="#aj"/><use transform="matrix(0.05,0,0,0.05,58,0)" xlink:href="#aF"/><use transform="matrix(0.05,0,0,0.05,68,0)" xlink:href="#ah"/><use transform="matrix(0.05,0,0,0.05,73.95,0)" xlink:href="#al"/><use transform="matrix(0.05,0,0,0.05,83.95,0)" xlink:href="#ag"/><use transform="matrix(0.05,0,0,0.05,93.95,0)" xlink:href="#ah"/></g><g id="X"><use transform="matrix(0.05,0,0,0.05,0,0)" xlink:href="#ag"/><use transform="matrix(0.05,0,0,0.05,10,0)" xlink:href="#aq"/><use transform="matrix(0.05,0,0,0.05,20,0)" xlink:href="#ai"/><use transform="matrix(0.05,0,0,0.05,30,0)" xlink:href="#as"/></g><g id="Y"><use transform="matrix(0.05,0,0,0.05,0,0)" xlink:href="#ap"/><use transform="matrix(0.05,0,0,0.05,5,0)" xlink:href="#aF"/><use transform="matrix(0.05,0,0,0.05,15,0)" xlink:href="#ap"/><use transform="matrix(0.05,0,0,0.05,20,0)" xlink:href="#ar"/><use transform="matrix(0.05,0,0,0.05,30,0)" xlink:href="#aG"/></g><g id="Z"><use transform="matrix(0.05,0,0,0.05,0,0)" xlink:href="#aB"/><use transform="matrix(0.05,0,0,0.05,12.950000000000001,0)" xlink:href="#ag"/><use transform="matrix(0.05,0,0,0.05,22.950000000000003,0)" xlink:href="#ap"/><use transform="matrix(0.05,0,0,0.05,27.950000000000003,0)" xlink:href="#ar"/><use transform="matrix(0.05,0,0,0.05,37.95,0)" xlink:href="#ak"/><use transform="matrix(0.05,0,0,0.05,41.900000000000006,0)" xlink:href="#aG"/><use transform="matrix(0.05,0,0,0.05,45.85000000000001,0)" xlink:href="#af"/></g><g id="aa"><use transform="matrix(0.05,0,0,0.05,0,0)" xlink:href="#al"/><use transform="matrix(0.05,0,0,0.05,10,0)" xlink:href="#ag"/><use transform="matrix(0.05,0,0,0.05,20,0)" xlink:href="#ap"/><use transform="matrix(0.05,0,0,0.05,25,0)" xlink:href="#ar"/><use transform="matrix(0.05,0,0,0.05,35,0)" xlink:href="#ak"/><use transform="matrix(0.05,0,0,0.05,38.95,0)" xlink:href="#aG"/><use transform="matrix(0.05,0,0,0.05,42.900000000000006,0)" xlink:href="#aj"/><use transform="matrix(0.05,0,0,0.05,52.900000000000006,0)" xlink:href="#ak"/><use transform="matrix(0.05,0,0,0.05,56.85,0)" xlink:href="#al"/></g><g id="ab"><use transform="matrix(0.05,0,0,0.05,0,0)" xlink:href="#ar"/><use transform="matrix(0.05,0,0,0.05,10,0)" xlink:href="#as"/><use transform="matrix(0.05,0,0,0.05,24.950000000000003,0)" xlink:href="#aF"/><use transform="matrix(0.05,0,0,0.05,34.95,0)" xlink:href="#ai"/><use transform="matrix(0.05,0,0,0.05,44.95,0)" xlink:href="#aq"/><use transform="matrix(0.05,0,0,0.05,54.95,0)" xlink:href="#ap"/></g><g id="ac"><use transform="matrix(0.05,0,0,0.05,0,0)" xlink:href="#ak"/><use transform="matrix(0.05,0,0,0.05,3.95,0)" xlink:href="#aq"/><use transform="matrix(0.05,0,0,0.05,13.949999999999998,0)" xlink:href="#ap"/><use transform="matrix(0.05,0,0,0.05,18.95,0)" xlink:href="#ag"/><use transform="matrix(0.05,0,0,0.05,28.950000000000003,0)" xlink:href="#aH"/><use transform="matrix(0.05,0,0,0.05,38.95,0)" xlink:href="#ag"/><use transform="matrix(0.05,0,0,0.05,48.95,0)" xlink:href="#ah"/></g><g id="ad"><use transform="matrix(0.05,0,0,0.05,0,0)" xlink:href="#af"/><use transform="matrix(0.05,0,0,0.05,9,0)" xlink:href="#ai"/><use transform="matrix(0.05,0,0,0.05,19,0)" xlink:href="#az"/><use transform="matrix(0.05,0,0,0.05,29,0)" xlink:href="#ap"/><use transform="matrix(0.05,0,0,0.05,34,0)" xlink:href="#aF"/><use transform="matrix(0.05,0,0,0.05,44,0)" xlink:href="#ap"/><use transform="matrix(0.05,0,0,0.05,49,0)" xlink:href="#ar"/><use transform="matrix(0.05,0,0,0.05,59,0)" xlink:href="#aG"/></g></defs></g></svg>